<?xml version="1.0" encoding="UTF-8"?>
<!DOCTYPE svg PUBLIC "-//W3C//DTD SVG 1.1//EN" "http://www.w3.org/Graphics/SVG/1.1/DTD/svg11.dtd">
<svg xmlns="http://www.w3.org/2000/svg" xmlns:xlink="http://www.w3.org/1999/xlink" version="1.1" width="942px" height="771px" viewBox="-0.5 -0.5 942 771"><defs><clipPath id="mx-clip-480-250-30-30-0"><rect x="480" y="250" width="30" height="30"/></clipPath><clipPath id="mx-clip-516-250-144-30-0"><rect x="516" y="250" width="144" height="30"/></clipPath><clipPath id="mx-clip-516-280-144-30-0"><rect x="516" y="280" width="144" height="30"/></clipPath><clipPath id="mx-clip-516-310-144-30-0"><rect x="516" y="310" width="144" height="30"/></clipPath><clipPath id="mx-clip-516-340-144-30-0"><rect x="516" y="340" width="144" height="30"/></clipPath><clipPath id="mx-clip-516-370-144-30-0"><rect x="516" y="370" width="144" height="30"/></clipPath><clipPath id="mx-clip-761-490-30-30-0"><rect x="761" y="490" width="30" height="30"/></clipPath><clipPath id="mx-clip-797-490-144-30-0"><rect x="797" y="490" width="144" height="30"/></clipPath><clipPath id="mx-clip-797-520-144-30-0"><rect x="797" y="520" width="144" height="30"/></clipPath><clipPath id="mx-clip-797-550-144-30-0"><rect x="797" y="550" width="144" height="30"/></clipPath><clipPath id="mx-clip-797-580-144-30-0"><rect x="797" y="580" width="144" height="30"/></clipPath><clipPath id="mx-clip-797-610-144-30-0"><rect x="797" y="610" width="144" height="30"/></clipPath><clipPath id="mx-clip-797-640-144-30-0"><rect x="797" y="640" width="144" height="30"/></clipPath><clipPath id="mx-clip-797-670-144-30-0"><rect x="797" y="670" width="144" height="30"/></clipPath><clipPath id="mx-clip-797-700-144-30-0"><rect x="797" y="700" width="144" height="30"/></clipPath><clipPath id="mx-clip-797-730-144-30-0"><rect x="797" y="730" width="144" height="30"/></clipPath><clipPath id="mx-clip-760-250-30-30-0"><rect x="760" y="250" width="30" height="30"/></clipPath><clipPath id="mx-clip-796-250-144-30-0"><rect x="796" y="250" width="144" height="30"/></clipPath><clipPath id="mx-clip-760-280-30-30-0"><rect x="760" y="280" width="30" height="30"/></clipPath><clipPath id="mx-clip-796-280-144-30-0"><rect x="796" y="280" width="144" height="30"/></clipPath><clipPath id="mx-clip-760-310-30-30-0"><rect x="760" y="310" width="30" height="30"/></clipPath><clipPath id="mx-clip-796-310-144-30-0"><rect x="796" y="310" width="144" height="30"/></clipPath><clipPath id="mx-clip-796-340-144-30-0"><rect x="796" y="340" width="144" height="30"/></clipPath><clipPath id="mx-clip-796-370-144-30-0"><rect x="796" y="370" width="144" height="30"/></clipPath><clipPath id="mx-clip-542-570-30-30-0"><rect x="542" y="570" width="30" height="30"/></clipPath><clipPath id="mx-clip-578-570-144-30-0"><rect x="578" y="570" width="144" height="30"/></clipPath><clipPath id="mx-clip-542-600-30-40-0"><rect x="542" y="600" width="30" height="40"/></clipPath><clipPath id="mx-clip-578-600-144-40-0"><rect x="578" y="600" width="144" height="40"/></clipPath><clipPath id="mx-clip-542-640-30-30-0"><rect x="542" y="640" width="30" height="30"/></clipPath><clipPath id="mx-clip-578-640-144-30-0"><rect x="578" y="640" width="144" height="30"/></clipPath><clipPath id="mx-clip-578-670-144-20-0"><rect x="578" y="670" width="144" height="20"/></clipPath><clipPath id="mx-clip-578-690-144-30-0"><rect x="578" y="690" width="144" height="30"/></clipPath><clipPath id="mx-clip-0-330-30-30-0"><rect x="0" y="330" width="30" height="30"/></clipPath><clipPath id="mx-clip-36-330-144-30-0"><rect x="36" y="330" width="144" height="30"/></clipPath><clipPath id="mx-clip-36-360-144-30-0"><rect x="36" y="360" width="144" height="30"/></clipPath><clipPath id="mx-clip-36-390-144-30-0"><rect x="36" y="390" width="144" height="30"/></clipPath><clipPath id="mx-clip-36-420-144-30-0"><rect x="36" y="420" width="144" height="30"/></clipPath><clipPath id="mx-clip-480-30-30-30-0"><rect x="480" y="30" width="30" height="30"/></clipPath><clipPath id="mx-clip-516-30-144-30-0"><rect x="516" y="30" width="144" height="30"/></clipPath><clipPath id="mx-clip-516-60-144-30-0"><rect x="516" y="60" width="144" height="30"/></clipPath><clipPath id="mx-clip-516-90-144-30-0"><rect x="516" y="90" width="144" height="30"/></clipPath><clipPath id="mx-clip-260-330-30-30-0"><rect x="260" y="330" width="30" height="30"/></clipPath><clipPath id="mx-clip-296-330-144-30-0"><rect x="296" y="330" width="144" height="30"/></clipPath><clipPath id="mx-clip-296-360-144-30-0"><rect x="296" y="360" width="144" height="30"/></clipPath><clipPath id="mx-clip-296-390-144-30-0"><rect x="296" y="390" width="144" height="30"/></clipPath><clipPath id="mx-clip-296-420-144-30-0"><rect x="296" y="420" width="144" height="30"/></clipPath></defs><g><g><path d="M 480 250 L 480 220 L 660 220 L 660 250" fill="rgb(255, 255, 255)" stroke="rgb(0, 0, 0)" stroke-miterlimit="10" pointer-events="all"/><path d="M 480 250 L 480 410 L 660 410 L 660 250" fill="none" stroke="rgb(0, 0, 0)" stroke-miterlimit="10" pointer-events="none"/><path d="M 480 250 L 660 250" fill="none" stroke="rgb(0, 0, 0)" stroke-miterlimit="10" pointer-events="none"/><path d="M 510 250 L 510 280 L 510 310 L 510 340 L 510 370 L 510 400" fill="none" stroke="rgb(0, 0, 0)" stroke-miterlimit="10" pointer-events="none"/></g><g><g fill="rgb(0, 0, 0)" font-family="Helvetica" font-weight="bold" text-anchor="middle" font-size="11.999999999999998px"><text x="569.5" y="239.5">Books</text></g></g><g><path d="M 480 250 M 660 250 M 660 280 L 480 280" fill="none" stroke="rgb(0, 0, 0)" stroke-linecap="square" stroke-miterlimit="10" pointer-events="none"/></g><g><rect x="480" y="250" width="30" height="30" fill="none" stroke="none" pointer-events="all"/><path d="M 480 250 M 510 250 M 510 280 M 480 280" fill="none" stroke="rgb(0, 0, 0)" stroke-linecap="square" stroke-miterlimit="10" pointer-events="all"/></g><g><g fill="rgb(0, 0, 0)" font-family="Helvetica" font-weight="bold" clip-path="url(#mx-clip-480-250-30-30-0)" text-anchor="middle" font-size="11.999999999999998px"><text x="494.5" y="269.5">PK</text></g></g><g><rect x="510" y="250" width="150" height="30" fill="none" stroke="none" pointer-events="all"/><path d="M 510 250 M 660 250 M 660 280 M 510 280" fill="none" stroke="rgb(0, 0, 0)" stroke-linecap="square" stroke-miterlimit="10" pointer-events="all"/></g><g><g fill="rgb(0, 0, 0)" font-family="Helvetica" font-weight="bold" text-decoration="underline" clip-path="url(#mx-clip-516-250-144-30-0)" font-size="11.999999999999998px"><text x="517.5" y="269.5">Id: uuid</text></g></g><g/><g><rect x="480" y="280" width="30" height="30" fill="none" stroke="none" pointer-events="all"/><path d="M 480 280 M 510 280 M 510 310 M 480 310" fill="none" stroke="rgb(0, 0, 0)" stroke-linecap="square" stroke-miterlimit="10" pointer-events="all"/></g><g><rect x="510" y="280" width="150" height="30" fill="none" stroke="none" pointer-events="all"/><path d="M 510 280 M 660 280 M 660 310 M 510 310" fill="none" stroke="rgb(0, 0, 0)" stroke-linecap="square" stroke-miterlimit="10" pointer-events="all"/></g><g><g fill="rgb(0, 0, 0)" font-family="Helvetica" clip-path="url(#mx-clip-516-280-144-30-0)" font-size="11.999999999999998px"><text x="517.5" y="299.5">Title: varchar(256)</text></g></g><g/><g><rect x="480" y="310" width="30" height="30" fill="none" stroke="none" pointer-events="all"/><path d="M 480 310 M 510 310 M 510 340 M 480 340" fill="none" stroke="rgb(0, 0, 0)" stroke-linecap="square" stroke-miterlimit="10" pointer-events="all"/></g><g><rect x="510" y="310" width="150" height="30" fill="none" stroke="none" pointer-events="all"/><path d="M 510 310 M 660 310 M 660 340 M 510 340" fill="none" stroke="rgb(0, 0, 0)" stroke-linecap="square" stroke-miterlimit="10" pointer-events="all"/></g><g><g fill="rgb(0, 0, 0)" font-family="Helvetica" clip-path="url(#mx-clip-516-310-144-30-0)" font-size="11.999999999999998px"><text x="517.5" y="329.5">BBK: varchar(16)</text></g></g><g/><g><rect x="480" y="340" width="30" height="30" fill="none" stroke="none" pointer-events="all"/><path d="M 480 340 M 510 340 M 510 370 M 480 370" fill="none" stroke="rgb(0, 0, 0)" stroke-linecap="square" stroke-miterlimit="10" pointer-events="all"/></g><g><rect x="510" y="340" width="150" height="30" fill="none" stroke="none" pointer-events="all"/><path d="M 510 340 M 660 340 M 660 370 M 510 370" fill="none" stroke="rgb(0, 0, 0)" stroke-linecap="square" stroke-miterlimit="10" pointer-events="all"/></g><g><g fill="rgb(0, 0, 0)" font-family="Helvetica" clip-path="url(#mx-clip-516-340-144-30-0)" font-size="11.999999999999998px"><text x="517.5" y="359.5">Pages: numeric</text></g></g><g/><g><rect x="480" y="370" width="30" height="30" fill="none" stroke="none" pointer-events="all"/><path d="M 480 370 M 510 370 M 510 400 M 480 400" fill="none" stroke="rgb(0, 0, 0)" stroke-linecap="square" stroke-miterlimit="10" pointer-events="all"/></g><g><rect x="510" y="370" width="150" height="30" fill="none" stroke="none" pointer-events="all"/><path d="M 510 370 M 660 370 M 660 400 M 510 400" fill="none" stroke="rgb(0, 0, 0)" stroke-linecap="square" stroke-miterlimit="10" pointer-events="all"/></g><g><g fill="rgb(0, 0, 0)" font-family="Helvetica" clip-path="url(#mx-clip-516-370-144-30-0)" font-size="11.999999999999998px"><text x="517.5" y="389.5">Year: numeric</text></g></g><g><path d="M 761 490 L 761 460 L 941 460 L 941 490" fill="rgb(255, 255, 255)" stroke="rgb(0, 0, 0)" stroke-miterlimit="10" pointer-events="all"/><path d="M 761 490 L 761 770 L 941 770 L 941 490" fill="none" stroke="rgb(0, 0, 0)" stroke-miterlimit="10" pointer-events="none"/><path d="M 761 490 L 941 490" fill="none" stroke="rgb(0, 0, 0)" stroke-miterlimit="10" pointer-events="none"/><path d="M 791 490 L 791 520 L 791 550 L 791 580 L 791 610 L 791 640 L 791 670 L 791 700 L 791 730 L 791 760" fill="none" stroke="rgb(0, 0, 0)" stroke-miterlimit="10" pointer-events="none"/></g><g><g fill="rgb(0, 0, 0)" font-family="Helvetica" font-weight="bold" text-anchor="middle" font-size="11.999999999999998px"><text x="850.5" y="479.5">Users</text></g></g><g><path d="M 761 490 M 941 490 M 941 520 L 761 520" fill="none" stroke="rgb(0, 0, 0)" stroke-linecap="square" stroke-miterlimit="10" pointer-events="none"/></g><g><rect x="761" y="490" width="30" height="30" fill="none" stroke="none" pointer-events="all"/><path d="M 761 490 M 791 490 M 791 520 M 761 520" fill="none" stroke="rgb(0, 0, 0)" stroke-linecap="square" stroke-miterlimit="10" pointer-events="all"/></g><g><g fill="rgb(0, 0, 0)" font-family="Helvetica" font-weight="bold" clip-path="url(#mx-clip-761-490-30-30-0)" text-anchor="middle" font-size="11.999999999999998px"><text x="775.5" y="509.5">PK</text></g></g><g><rect x="791" y="490" width="150" height="30" fill="none" stroke="none" pointer-events="all"/><path d="M 791 490 M 941 490 M 941 520 M 791 520" fill="none" stroke="rgb(0, 0, 0)" stroke-linecap="square" stroke-miterlimit="10" pointer-events="all"/></g><g><g fill="rgb(0, 0, 0)" font-family="Helvetica" font-weight="bold" text-decoration="underline" clip-path="url(#mx-clip-797-490-144-30-0)" font-size="11.999999999999998px"><text x="798.5" y="509.5">Id: uuid</text></g></g><g/><g><rect x="761" y="520" width="30" height="30" fill="none" stroke="none" pointer-events="all"/><path d="M 761 520 M 791 520 M 791 550 M 761 550" fill="none" stroke="rgb(0, 0, 0)" stroke-linecap="square" stroke-miterlimit="10" pointer-events="all"/></g><g><rect x="791" y="520" width="150" height="30" fill="none" stroke="none" pointer-events="all"/><path d="M 791 520 M 941 520 M 941 550 M 791 550" fill="none" stroke="rgb(0, 0, 0)" stroke-linecap="square" stroke-miterlimit="10" pointer-events="all"/></g><g><g fill="rgb(0, 0, 0)" font-family="Helvetica" clip-path="url(#mx-clip-797-520-144-30-0)" font-size="11.999999999999998px"><text x="798.5" y="539.5">LastName: varchar(64)</text></g></g><g/><g><rect x="761" y="550" width="30" height="30" fill="none" stroke="none" pointer-events="all"/><path d="M 761 550 M 791 550 M 791 580 M 761 580" fill="none" stroke="rgb(0, 0, 0)" stroke-linecap="square" stroke-miterlimit="10" pointer-events="all"/></g><g><rect x="791" y="550" width="150" height="30" fill="none" stroke="none" pointer-events="all"/><path d="M 791 550 M 941 550 M 941 580 M 791 580" fill="none" stroke="rgb(0, 0, 0)" stroke-linecap="square" stroke-miterlimit="10" pointer-events="all"/></g><g><g fill="rgb(0, 0, 0)" font-family="Helvetica" clip-path="url(#mx-clip-797-550-144-30-0)" font-size="11.999999999999998px"><text x="798.5" y="569.5">FirstName: varchar(64)</text></g></g><g/><g><rect x="761" y="580" width="30" height="30" fill="none" stroke="none" pointer-events="all"/><path d="M 761 580 M 791 580 M 791 610 M 761 610" fill="none" stroke="rgb(0, 0, 0)" stroke-linecap="square" stroke-miterlimit="10" pointer-events="all"/></g><g><rect x="791" y="580" width="150" height="30" fill="none" stroke="none" pointer-events="all"/><path d="M 791 580 M 941 580 M 941 610 M 791 610" fill="none" stroke="rgb(0, 0, 0)" stroke-linecap="square" stroke-miterlimit="10" pointer-events="all"/></g><g><g fill="rgb(0, 0, 0)" font-family="Helvetica" clip-path="url(#mx-clip-797-580-144-30-0)" font-size="11.999999999999998px"><text x="798.5" y="599.5">Patronymic: varchar(64)</text></g></g><g/><g><rect x="761" y="610" width="30" height="30" fill="none" stroke="none" pointer-events="all"/><path d="M 761 610 M 791 610 M 791 640 M 761 640" fill="none" stroke="rgb(0, 0, 0)" stroke-linecap="square" stroke-miterlimit="10" pointer-events="all"/></g><g><rect x="791" y="610" width="150" height="30" fill="none" stroke="none" pointer-events="all"/><path d="M 791 610 M 941 610 M 941 640 M 791 640" fill="none" stroke="rgb(0, 0, 0)" stroke-linecap="square" stroke-miterlimit="10" pointer-events="all"/></g><g><g fill="rgb(0, 0, 0)" font-family="Helvetica" clip-path="url(#mx-clip-797-610-144-30-0)" font-size="11.999999999999998px"><text x="798.5" y="629.5">Birthday: date</text></g></g><g/><g><rect x="761" y="640" width="30" height="30" fill="none" stroke="none" pointer-events="all"/><path d="M 761 640 M 791 640 M 791 670 M 761 670" fill="none" stroke="rgb(0, 0, 0)" stroke-linecap="square" stroke-miterlimit="10" pointer-events="all"/></g><g><rect x="791" y="640" width="150" height="30" fill="none" stroke="none" pointer-events="all"/><path d="M 791 640 M 941 640 M 941 670 M 791 670" fill="none" stroke="rgb(0, 0, 0)" stroke-linecap="square" stroke-miterlimit="10" pointer-events="all"/></g><g><g fill="rgb(0, 0, 0)" font-family="Helvetica" clip-path="url(#mx-clip-797-640-144-30-0)" font-size="11.999999999999998px"><text x="798.5" y="659.5">Gender: varchar(16)</text></g></g><g/><g><rect x="761" y="670" width="30" height="30" fill="none" stroke="none" pointer-events="all"/><path d="M 761 670 M 791 670 M 791 700 M 761 700" fill="none" stroke="rgb(0, 0, 0)" stroke-linecap="square" stroke-miterlimit="10" pointer-events="all"/></g><g><rect x="791" y="670" width="150" height="30" fill="none" stroke="none" pointer-events="all"/><path d="M 791 670 M 941 670 M 941 700 M 791 700" fill="none" stroke="rgb(0, 0, 0)" stroke-linecap="square" stroke-miterlimit="10" pointer-events="all"/></g><g><g fill="rgb(0, 0, 0)" font-family="Helvetica" clip-path="url(#mx-clip-797-670-144-30-0)" font-size="11.999999999999998px"><text x="798.5" y="689.5">Password: varchar(128)</text></g></g><g/><g><rect x="761" y="700" width="30" height="30" fill="none" stroke="none" pointer-events="all"/><path d="M 761 700 M 791 700 M 791 730 M 761 730" fill="none" stroke="rgb(0, 0, 0)" stroke-linecap="square" stroke-miterlimit="10" pointer-events="all"/></g><g><rect x="791" y="700" width="150" height="30" fill="none" stroke="none" pointer-events="all"/><path d="M 791 700 M 941 700 M 941 730 M 791 730" fill="none" stroke="rgb(0, 0, 0)" stroke-linecap="square" stroke-miterlimit="10" pointer-events="all"/></g><g><g fill="rgb(0, 0, 0)" font-family="Helvetica" clip-path="url(#mx-clip-797-700-144-30-0)" font-size="11.999999999999998px"><text x="798.5" y="719.5">Email: text</text></g></g><g/><g><rect x="761" y="730" width="30" height="30" fill="none" stroke="none" pointer-events="all"/><path d="M 761 730 M 791 730 M 791 760 M 761 760" fill="none" stroke="rgb(0, 0, 0)" stroke-linecap="square" stroke-miterlimit="10" pointer-events="all"/></g><g><rect x="791" y="730" width="150" height="30" fill="none" stroke="none" pointer-events="all"/><path d="M 791 730 M 941 730 M 941 760 M 791 760" fill="none" stroke="rgb(0, 0, 0)" stroke-linecap="square" stroke-miterlimit="10" pointer-events="all"/></g><g><g fill="rgb(0, 0, 0)" font-family="Helvetica" clip-path="url(#mx-clip-797-730-144-30-0)" font-size="11.999999999999998px"><text x="798.5" y="749.5">IsAdmin: integer</text></g></g><g><path d="M 760 250 L 760 220 L 940 220 L 940 250" fill="rgb(255, 255, 255)" stroke="rgb(0, 0, 0)" stroke-miterlimit="10" pointer-events="all"/><path d="M 760 250 L 760 410 L 940 410 L 940 250" fill="none" stroke="rgb(0, 0, 0)" stroke-miterlimit="10" pointer-events="none"/><path d="M 760 250 L 940 250" fill="none" stroke="rgb(0, 0, 0)" stroke-miterlimit="10" pointer-events="none"/><path d="M 790 250 L 790 280 L 790 310 L 790 340 L 790 370 L 790 400" fill="none" stroke="rgb(0, 0, 0)" stroke-miterlimit="10" pointer-events="none"/></g><g><g fill="rgb(0, 0, 0)" font-family="Helvetica" font-weight="bold" text-anchor="middle" font-size="11.999999999999998px"><text x="849.5" y="239.5">Reviews</text></g></g><g><path d="M 760 250 M 940 250 M 940 280 L 760 280" fill="none" stroke="rgb(0, 0, 0)" stroke-linecap="square" stroke-miterlimit="10" pointer-events="none"/></g><g><rect x="760" y="250" width="30" height="30" fill="none" stroke="none" pointer-events="all"/><path d="M 760 250 M 790 250 M 790 280 M 760 280" fill="none" stroke="rgb(0, 0, 0)" stroke-linecap="square" stroke-miterlimit="10" pointer-events="all"/></g><g><g fill="rgb(0, 0, 0)" font-family="Helvetica" font-weight="bold" clip-path="url(#mx-clip-760-250-30-30-0)" text-anchor="middle" font-size="11.999999999999998px"><text x="774.5" y="269.5">PK</text></g></g><g><rect x="790" y="250" width="150" height="30" fill="none" stroke="none" pointer-events="all"/><path d="M 790 250 M 940 250 M 940 280 M 790 280" fill="none" stroke="rgb(0, 0, 0)" stroke-linecap="square" stroke-miterlimit="10" pointer-events="all"/></g><g><g fill="rgb(0, 0, 0)" font-family="Helvetica" font-weight="bold" text-decoration="underline" clip-path="url(#mx-clip-796-250-144-30-0)" font-size="11.999999999999998px"><text x="797.5" y="269.5">Id: uuid</text></g></g><g/><g><rect x="760" y="280" width="30" height="30" fill="none" stroke="none" pointer-events="all"/><path d="M 760 280 M 790 280 M 790 310 M 760 310" fill="none" stroke="rgb(0, 0, 0)" stroke-linecap="square" stroke-miterlimit="10" pointer-events="all"/></g><g><g fill="rgb(0, 0, 0)" font-family="Helvetica" clip-path="url(#mx-clip-760-280-30-30-0)" text-anchor="middle" font-size="11.999999999999998px"><text x="774.5" y="299.5">FK</text></g></g><g><rect x="790" y="280" width="150" height="30" fill="none" stroke="none" pointer-events="all"/><path d="M 790 280 M 940 280 M 940 310 M 790 310" fill="none" stroke="rgb(0, 0, 0)" stroke-linecap="square" stroke-miterlimit="10" pointer-events="all"/></g><g><g fill="rgb(0, 0, 0)" font-family="Helvetica" clip-path="url(#mx-clip-796-280-144-30-0)" font-size="11.999999999999998px"><text x="797.5" y="299.5">BookId:  uuid</text></g></g><g/><g><rect x="760" y="310" width="30" height="30" fill="none" stroke="none" pointer-events="all"/><path d="M 760 310 M 790 310 M 790 340 M 760 340" fill="none" stroke="rgb(0, 0, 0)" stroke-linecap="square" stroke-miterlimit="10" pointer-events="all"/></g><g><g fill="rgb(0, 0, 0)" font-family="Helvetica" clip-path="url(#mx-clip-760-310-30-30-0)" text-anchor="middle" font-size="11.999999999999998px"><text x="774.5" y="329.5">FK</text></g></g><g><rect x="790" y="310" width="150" height="30" fill="none" stroke="none" pointer-events="all"/><path d="M 790 310 M 940 310 M 940 340 M 790 340" fill="none" stroke="rgb(0, 0, 0)" stroke-linecap="square" stroke-miterlimit="10" pointer-events="all"/></g><g><g fill="rgb(0, 0, 0)" font-family="Helvetica" clip-path="url(#mx-clip-796-310-144-30-0)" font-size="11.999999999999998px"><text x="797.5" y="329.5">UserId: uuid</text></g></g><g/><g><rect x="760" y="340" width="30" height="30" fill="none" stroke="none" pointer-events="all"/><path d="M 760 340 M 790 340 M 790 370 M 760 370" fill="none" stroke="rgb(0, 0, 0)" stroke-linecap="square" stroke-miterlimit="10" pointer-events="all"/></g><g><rect x="790" y="340" width="150" height="30" fill="none" stroke="none" pointer-events="all"/><path d="M 790 340 M 940 340 M 940 370 M 790 370" fill="none" stroke="rgb(0, 0, 0)" stroke-linecap="square" stroke-miterlimit="10" pointer-events="all"/></g><g><g fill="rgb(0, 0, 0)" font-family="Helvetica" clip-path="url(#mx-clip-796-340-144-30-0)" font-size="11.999999999999998px"><text x="797.5" y="359.5">CreationDate: DateTime</text></g></g><g/><g><rect x="760" y="370" width="30" height="30" fill="none" stroke="none" pointer-events="all"/><path d="M 760 370 M 790 370 M 790 400 M 760 400" fill="none" stroke="rgb(0, 0, 0)" stroke-linecap="square" stroke-miterlimit="10" pointer-events="all"/></g><g><rect x="790" y="370" width="150" height="30" fill="none" stroke="none" pointer-events="all"/><path d="M 790 370 M 940 370 M 940 400 M 790 400" fill="none" stroke="rgb(0, 0, 0)" stroke-linecap="square" stroke-miterlimit="10" pointer-events="all"/></g><g><g fill="rgb(0, 0, 0)" font-family="Helvetica" clip-path="url(#mx-clip-796-370-144-30-0)" font-size="11.999999999999998px"><text x="797.5" y="389.5">Message: text</text></g></g><g><path d="M 542 570 L 542 540 L 722 540 L 722 570" fill="rgb(255, 255, 255)" stroke="rgb(0, 0, 0)" stroke-miterlimit="10" pointer-events="all"/><path d="M 542 570 L 542 730 L 722 730 L 722 570" fill="none" stroke="rgb(0, 0, 0)" stroke-miterlimit="10" pointer-events="none"/><path d="M 542 570 L 722 570" fill="none" stroke="rgb(0, 0, 0)" stroke-miterlimit="10" pointer-events="none"/><path d="M 572 570 L 572 600 L 572 640 L 572 670 L 572 690 L 572 720" fill="none" stroke="rgb(0, 0, 0)" stroke-miterlimit="10" pointer-events="none"/></g><g><g fill="rgb(0, 0, 0)" font-family="Helvetica" font-weight="bold" text-anchor="middle" font-size="11.999999999999998px"><text x="631.5" y="559.5">Orders</text></g></g><g><path d="M 542 570 M 722 570 M 722 600 L 542 600" fill="none" stroke="rgb(0, 0, 0)" stroke-linecap="square" stroke-miterlimit="10" pointer-events="none"/></g><g><rect x="542" y="570" width="30" height="30" fill="none" stroke="none" pointer-events="all"/><path d="M 542 570 M 572 570 M 572 600 M 542 600" fill="none" stroke="rgb(0, 0, 0)" stroke-linecap="square" stroke-miterlimit="10" pointer-events="all"/></g><g><g fill="rgb(0, 0, 0)" font-family="Helvetica" font-weight="bold" clip-path="url(#mx-clip-542-570-30-30-0)" text-anchor="middle" font-size="11.999999999999998px"><text x="556.5" y="589.5">PK</text></g></g><g><rect x="572" y="570" width="150" height="30" fill="none" stroke="none" pointer-events="all"/><path d="M 572 570 M 722 570 M 722 600 M 572 600" fill="none" stroke="rgb(0, 0, 0)" stroke-linecap="square" stroke-miterlimit="10" pointer-events="all"/></g><g><g fill="rgb(0, 0, 0)" font-family="Helvetica" font-weight="bold" text-decoration="underline" clip-path="url(#mx-clip-578-570-144-30-0)" font-size="11.999999999999998px"><text x="579.5" y="589.5">Id: uuid</text></g></g><g/><g><rect x="542" y="600" width="30" height="40" fill="none" stroke="none" pointer-events="all"/><path d="M 542 600 M 572 600 M 572 640 M 542 640" fill="none" stroke="rgb(0, 0, 0)" stroke-linecap="square" stroke-miterlimit="10" pointer-events="all"/></g><g><g fill="rgb(0, 0, 0)" font-family="Helvetica" clip-path="url(#mx-clip-542-600-30-40-0)" text-anchor="middle" font-size="11.999999999999998px"><text x="556.5" y="624.5">FK</text></g></g><g><rect x="572" y="600" width="150" height="40" fill="none" stroke="none" pointer-events="all"/><path d="M 572 600 M 722 600 M 722 640 M 572 640" fill="none" stroke="rgb(0, 0, 0)" stroke-linecap="square" stroke-miterlimit="10" pointer-events="all"/></g><g><g fill="rgb(0, 0, 0)" font-family="Helvetica" clip-path="url(#mx-clip-578-600-144-40-0)" font-size="11.999999999999998px"><text x="579.5" y="624.5">UserId: uuid</text></g></g><g/><g><rect x="542" y="640" width="30" height="30" fill="none" stroke="none" pointer-events="all"/><path d="M 542 640 M 572 640 M 572 670 M 542 670" fill="none" stroke="rgb(0, 0, 0)" stroke-linecap="square" stroke-miterlimit="10" pointer-events="all"/></g><g><g fill="rgb(0, 0, 0)" font-family="Helvetica" clip-path="url(#mx-clip-542-640-30-30-0)" text-anchor="middle" font-size="11.999999999999998px"><text x="556.5" y="659.5">FK</text></g></g><g><rect x="572" y="640" width="150" height="30" fill="none" stroke="none" pointer-events="all"/><path d="M 572 640 M 722 640 M 722 670 M 572 670" fill="none" stroke="rgb(0, 0, 0)" stroke-linecap="square" stroke-miterlimit="10" pointer-events="all"/></g><g><g fill="rgb(0, 0, 0)" font-family="Helvetica" clip-path="url(#mx-clip-578-640-144-30-0)" font-size="11.999999999999998px"><text x="579.5" y="659.5">BookId: uuid</text></g></g><g/><g><rect x="542" y="670" width="30" height="20" fill="none" stroke="none" pointer-events="all"/><path d="M 542 670 M 572 670 M 572 690 M 542 690" fill="none" stroke="rgb(0, 0, 0)" stroke-linecap="square" stroke-miterlimit="10" pointer-events="all"/></g><g><rect x="572" y="670" width="150" height="20" fill="none" stroke="none" pointer-events="all"/><path d="M 572 670 M 722 670 M 722 690 M 572 690" fill="none" stroke="rgb(0, 0, 0)" stroke-linecap="square" stroke-miterlimit="10" pointer-events="all"/></g><g><g fill="rgb(0, 0, 0)" font-family="Helvetica" clip-path="url(#mx-clip-578-670-144-20-0)" font-size="11.999999999999998px"><text x="579.5" y="684.5">Status: varchar(32)</text></g></g><g/><g><rect x="542" y="690" width="30" height="30" fill="none" stroke="none" pointer-events="all"/><path d="M 542 690 M 572 690 M 572 720 M 542 720" fill="none" stroke="rgb(0, 0, 0)" stroke-linecap="square" stroke-miterlimit="10" pointer-events="all"/></g><g><rect x="572" y="690" width="150" height="30" fill="none" stroke="none" pointer-events="all"/><path d="M 572 690 M 722 690 M 722 720 M 572 720" fill="none" stroke="rgb(0, 0, 0)" stroke-linecap="square" stroke-miterlimit="10" pointer-events="all"/></g><g><g fill="rgb(0, 0, 0)" font-family="Helvetica" clip-path="url(#mx-clip-578-690-144-30-0)" font-size="11.999999999999998px"><text x="579.5" y="709.5">CreationDate: DateTime</text></g></g><g><path d="M 0 330 L 0 300 L 180 300 L 180 330" fill="rgb(255, 255, 255)" stroke="rgb(0, 0, 0)" stroke-miterlimit="10" pointer-events="all"/><path d="M 0 330 L 0 460 L 180 460 L 180 330" fill="none" stroke="rgb(0, 0, 0)" stroke-miterlimit="10" pointer-events="none"/><path d="M 0 330 L 180 330" fill="none" stroke="rgb(0, 0, 0)" stroke-miterlimit="10" pointer-events="none"/><path d="M 30 330 L 30 360 L 30 390 L 30 420 L 30 450" fill="none" stroke="rgb(0, 0, 0)" stroke-miterlimit="10" pointer-events="none"/></g><g><g fill="rgb(0, 0, 0)" font-family="Helvetica" font-weight="bold" text-anchor="middle" font-size="11.999999999999998px"><text x="89.5" y="319.5">News</text></g></g><g><path d="M 0 330 M 180 330 M 180 360 L 0 360" fill="none" stroke="rgb(0, 0, 0)" stroke-linecap="square" stroke-miterlimit="10" pointer-events="none"/></g><g><rect x="0" y="330" width="30" height="30" fill="none" stroke="none" pointer-events="all"/><path d="M 0 330 M 30 330 M 30 360 M 0 360" fill="none" stroke="rgb(0, 0, 0)" stroke-linecap="square" stroke-miterlimit="10" pointer-events="all"/></g><g><g fill="rgb(0, 0, 0)" font-family="Helvetica" font-weight="bold" clip-path="url(#mx-clip-0-330-30-30-0)" text-anchor="middle" font-size="11.999999999999998px"><text x="14.5" y="349.5">PK</text></g></g><g><rect x="30" y="330" width="150" height="30" fill="none" stroke="none" pointer-events="all"/><path d="M 30 330 M 180 330 M 180 360 M 30 360" fill="none" stroke="rgb(0, 0, 0)" stroke-linecap="square" stroke-miterlimit="10" pointer-events="all"/></g><g><g fill="rgb(0, 0, 0)" font-family="Helvetica" font-weight="bold" text-decoration="underline" clip-path="url(#mx-clip-36-330-144-30-0)" font-size="11.999999999999998px"><text x="37.5" y="349.5">Id: uuid</text></g></g><g/><g><rect x="0" y="360" width="30" height="30" fill="none" stroke="none" pointer-events="all"/><path d="M 0 360 M 30 360 M 30 390 M 0 390" fill="none" stroke="rgb(0, 0, 0)" stroke-linecap="square" stroke-miterlimit="10" pointer-events="all"/></g><g><rect x="30" y="360" width="150" height="30" fill="none" stroke="none" pointer-events="all"/><path d="M 30 360 M 180 360 M 180 390 M 30 390" fill="none" stroke="rgb(0, 0, 0)" stroke-linecap="square" stroke-miterlimit="10" pointer-events="all"/></g><g><g fill="rgb(0, 0, 0)" font-family="Helvetica" clip-path="url(#mx-clip-36-360-144-30-0)" font-size="11.999999999999998px"><text x="37.5" y="379.5">Title: varchar(256)</text></g></g><g/><g><rect x="0" y="390" width="30" height="30" fill="none" stroke="none" pointer-events="all"/><path d="M 0 390 M 30 390 M 30 420 M 0 420" fill="none" stroke="rgb(0, 0, 0)" stroke-linecap="square" stroke-miterlimit="10" pointer-events="all"/></g><g><rect x="30" y="390" width="150" height="30" fill="none" stroke="none" pointer-events="all"/><path d="M 30 390 M 180 390 M 180 420 M 30 420" fill="none" stroke="rgb(0, 0, 0)" stroke-linecap="square" stroke-miterlimit="10" pointer-events="all"/></g><g><g fill="rgb(0, 0, 0)" font-family="Helvetica" clip-path="url(#mx-clip-36-390-144-30-0)" font-size="11.999999999999998px"><text x="37.5" y="409.5">CreationDate: DateTime</text></g></g><g/><g><rect x="0" y="420" width="30" height="30" fill="none" stroke="none" pointer-events="all"/><path d="M 0 420 M 30 420 M 30 450 M 0 450" fill="none" stroke="rgb(0, 0, 0)" stroke-linecap="square" stroke-miterlimit="10" pointer-events="all"/></g><g><rect x="30" y="420" width="150" height="30" fill="none" stroke="none" pointer-events="all"/><path d="M 30 420 M 180 420 M 180 450 M 30 450" fill="none" stroke="rgb(0, 0, 0)" stroke-linecap="square" stroke-miterlimit="10" pointer-events="all"/></g><g><g fill="rgb(0, 0, 0)" font-family="Helvetica" clip-path="url(#mx-clip-36-420-144-30-0)" font-size="11.999999999999998px"><text x="37.5" y="439.5">Decription: text</text></g></g><g><path d="M 480 30 L 480 0 L 660 0 L 660 30" fill="rgb(255, 255, 255)" stroke="rgb(0, 0, 0)" stroke-miterlimit="10" pointer-events="all"/><path d="M 480 30 L 480 130 L 660 130 L 660 30" fill="none" stroke="rgb(0, 0, 0)" stroke-miterlimit="10" pointer-events="none"/><path d="M 480 30 L 660 30" fill="none" stroke="rgb(0, 0, 0)" stroke-miterlimit="10" pointer-events="none"/><path d="M 510 30 L 510 60 L 510 90 L 510 120" fill="none" stroke="rgb(0, 0, 0)" stroke-miterlimit="10" pointer-events="none"/></g><g><g fill="rgb(0, 0, 0)" font-family="Helvetica" font-weight="bold" text-anchor="middle" font-size="11.999999999999998px"><text x="569.5" y="19.5">Authors</text></g></g><g><path d="M 480 30 M 660 30 M 660 60 L 480 60" fill="none" stroke="rgb(0, 0, 0)" stroke-linecap="square" stroke-miterlimit="10" pointer-events="none"/></g><g><rect x="480" y="30" width="30" height="30" fill="none" stroke="none" pointer-events="all"/><path d="M 480 30 M 510 30 M 510 60 M 480 60" fill="none" stroke="rgb(0, 0, 0)" stroke-linecap="square" stroke-miterlimit="10" pointer-events="all"/></g><g><g fill="rgb(0, 0, 0)" font-family="Helvetica" font-weight="bold" clip-path="url(#mx-clip-480-30-30-30-0)" text-anchor="middle" font-size="11.999999999999998px"><text x="494.5" y="49.5">PK</text></g></g><g><rect x="510" y="30" width="150" height="30" fill="none" stroke="none" pointer-events="all"/><path d="M 510 30 M 660 30 M 660 60 M 510 60" fill="none" stroke="rgb(0, 0, 0)" stroke-linecap="square" stroke-miterlimit="10" pointer-events="all"/></g><g><g fill="rgb(0, 0, 0)" font-family="Helvetica" font-weight="bold" text-decoration="underline" clip-path="url(#mx-clip-516-30-144-30-0)" font-size="11.999999999999998px"><text x="517.5" y="49.5">Id: uuid</text></g></g><g/><g><rect x="480" y="60" width="30" height="30" fill="none" stroke="none" pointer-events="all"/><path d="M 480 60 M 510 60 M 510 90 M 480 90" fill="none" stroke="rgb(0, 0, 0)" stroke-linecap="square" stroke-miterlimit="10" pointer-events="all"/></g><g><rect x="510" y="60" width="150" height="30" fill="none" stroke="none" pointer-events="all"/><path d="M 510 60 M 660 60 M 660 90 M 510 90" fill="none" stroke="rgb(0, 0, 0)" stroke-linecap="square" stroke-miterlimit="10" pointer-events="all"/></g><g><g fill="rgb(0, 0, 0)" font-family="Helvetica" clip-path="url(#mx-clip-516-60-144-30-0)" font-size="11.999999999999998px"><text x="517.5" y="79.5">Name: varchar(128)</text></g></g><g/><g><rect x="480" y="90" width="30" height="30" fill="none" stroke="none" pointer-events="all"/><path d="M 480 90 M 510 90 M 510 120 M 480 120" fill="none" stroke="rgb(0, 0, 0)" stroke-linecap="square" stroke-miterlimit="10" pointer-events="all"/></g><g><rect x="510" y="90" width="150" height="30" fill="none" stroke="none" pointer-events="all"/><path d="M 510 90 M 660 90 M 660 120 M 510 120" fill="none" stroke="rgb(0, 0, 0)" stroke-linecap="square" stroke-miterlimit="10" pointer-events="all"/></g><g><g fill="rgb(0, 0, 0)" font-family="Helvetica" clip-path="url(#mx-clip-516-90-144-30-0)" font-size="11.999999999999998px"><text x="517.5" y="109.5">Country: varchar(128)</text></g></g><g><path d="M 660 265 L 690 265 L 690 295 L 760 295" fill="none" stroke="rgb(0, 0, 0)" stroke-miterlimit="10" pointer-events="stroke"/><path d="M 760 291 L 752 295 L 760 299" fill="none" stroke="rgb(0, 0, 0)" stroke-miterlimit="10" pointer-events="all"/></g><g><path d="M 660 265 L 690 265 L 690 480.05 L 460 480.05 L 460 650.05 L 542 650.05" fill="none" stroke="rgb(0, 0, 0)" stroke-miterlimit="10" pointer-events="stroke"/><path d="M 542 646.05 L 534 650.05 L 542 654.05" fill="none" stroke="rgb(0, 0, 0)" stroke-miterlimit="10" pointer-events="all"/></g><g><path d="M 761 505 L 480 505 L 480 620 L 542 620" fill="none" stroke="rgb(0, 0, 0)" stroke-miterlimit="10" pointer-events="stroke"/><path d="M 542 616 L 534 620 L 542 624" fill="none" stroke="rgb(0, 0, 0)" stroke-miterlimit="10" pointer-events="all"/></g><g><path d="M 761 505 L 730 505 L 730 325 L 760 325" fill="none" stroke="rgb(0, 0, 0)" stroke-miterlimit="10" pointer-events="stroke"/><path d="M 760 321 L 752 325 L 760 329" fill="none" stroke="rgb(0, 0, 0)" stroke-miterlimit="10" pointer-events="all"/></g><g><path d="M 660.9 259.96 L 710 260.05 L 710 45 L 660 45" fill="none" stroke="rgb(0, 0, 0)" stroke-miterlimit="10" pointer-events="stroke"/><path d="M 660.89 263.96 L 668.9 259.98 L 660.91 255.96" fill="none" stroke="rgb(0, 0, 0)" stroke-miterlimit="10" pointer-events="all"/><path d="M 660 49 L 668 45 L 660 41" fill="none" stroke="rgb(0, 0, 0)" stroke-miterlimit="10" pointer-events="all"/></g><g><path d="M 260 330 L 260 300 L 440 300 L 440 330" fill="rgb(255, 255, 255)" stroke="rgb(0, 0, 0)" stroke-miterlimit="10" pointer-events="all"/><path d="M 260 330 L 260 460 L 440 460 L 440 330" fill="none" stroke="rgb(0, 0, 0)" stroke-miterlimit="10" pointer-events="none"/><path d="M 260 330 L 440 330" fill="none" stroke="rgb(0, 0, 0)" stroke-miterlimit="10" pointer-events="none"/><path d="M 290 330 L 290 360 L 290 390 L 290 420 L 290 450" fill="none" stroke="rgb(0, 0, 0)" stroke-miterlimit="10" pointer-events="none"/></g><g><g fill="rgb(0, 0, 0)" font-family="Helvetica" font-weight="bold" text-anchor="middle" font-size="11.999999999999998px"><text x="349.5" y="319.5">Collections</text></g></g><g><path d="M 260 330 M 440 330 M 440 360 L 260 360" fill="none" stroke="rgb(0, 0, 0)" stroke-linecap="square" stroke-miterlimit="10" pointer-events="none"/></g><g><rect x="260" y="330" width="30" height="30" fill="none" stroke="none" pointer-events="all"/><path d="M 260 330 M 290 330 M 290 360 M 260 360" fill="none" stroke="rgb(0, 0, 0)" stroke-linecap="square" stroke-miterlimit="10" pointer-events="all"/></g><g><g fill="rgb(0, 0, 0)" font-family="Helvetica" font-weight="bold" clip-path="url(#mx-clip-260-330-30-30-0)" text-anchor="middle" font-size="11.999999999999998px"><text x="274.5" y="349.5">PK</text></g></g><g><rect x="290" y="330" width="150" height="30" fill="none" stroke="none" pointer-events="all"/><path d="M 290 330 M 440 330 M 440 360 M 290 360" fill="none" stroke="rgb(0, 0, 0)" stroke-linecap="square" stroke-miterlimit="10" pointer-events="all"/></g><g><g fill="rgb(0, 0, 0)" font-family="Helvetica" font-weight="bold" text-decoration="underline" clip-path="url(#mx-clip-296-330-144-30-0)" font-size="11.999999999999998px"><text x="297.5" y="349.5">Id: uuid</text></g></g><g/><g><rect x="260" y="360" width="30" height="30" fill="none" stroke="none" pointer-events="all"/><path d="M 260 360 M 290 360 M 290 390 M 260 390" fill="none" stroke="rgb(0, 0, 0)" stroke-linecap="square" stroke-miterlimit="10" pointer-events="all"/></g><g><rect x="290" y="360" width="150" height="30" fill="none" stroke="none" pointer-events="all"/><path d="M 290 360 M 440 360 M 440 390 M 290 390" fill="none" stroke="rgb(0, 0, 0)" stroke-linecap="square" stroke-miterlimit="10" pointer-events="all"/></g><g><g fill="rgb(0, 0, 0)" font-family="Helvetica" clip-path="url(#mx-clip-296-360-144-30-0)" font-size="11.999999999999998px"><text x="297.5" y="379.5">Title: varchar(256)</text></g></g><g/><g><rect x="260" y="390" width="30" height="30" fill="none" stroke="none" pointer-events="all"/><path d="M 260 390 M 290 390 M 290 420 M 260 420" fill="none" stroke="rgb(0, 0, 0)" stroke-linecap="square" stroke-miterlimit="10" pointer-events="all"/></g><g><rect x="290" y="390" width="150" height="30" fill="none" stroke="none" pointer-events="all"/><path d="M 290 390 M 440 390 M 440 420 M 290 420" fill="none" stroke="rgb(0, 0, 0)" stroke-linecap="square" stroke-miterlimit="10" pointer-events="all"/></g><g><g fill="rgb(0, 0, 0)" font-family="Helvetica" clip-path="url(#mx-clip-296-390-144-30-0)" font-size="11.999999999999998px"><text x="297.5" y="409.5">CreationDate: DateTime</text></g></g><g/><g><rect x="260" y="420" width="30" height="30" fill="none" stroke="none" pointer-events="all"/><path d="M 260 420 M 290 420 M 290 450 M 260 450" fill="none" stroke="rgb(0, 0, 0)" stroke-linecap="square" stroke-miterlimit="10" pointer-events="all"/></g><g><rect x="290" y="420" width="150" height="30" fill="none" stroke="none" pointer-events="all"/><path d="M 290 420 M 440 420 M 440 450 M 290 450" fill="none" stroke="rgb(0, 0, 0)" stroke-linecap="square" stroke-miterlimit="10" pointer-events="all"/></g><g><g fill="rgb(0, 0, 0)" font-family="Helvetica" clip-path="url(#mx-clip-296-420-144-30-0)" font-size="11.999999999999998px"><text x="297.5" y="439.5">Description: text</text></g></g><g><path d="M 660 260 L 690 260.05 L 690 210.05 L 470 210.05 L 470 375 L 440 375" fill="none" stroke="rgb(0, 0, 0)" stroke-miterlimit="10" pointer-events="stroke"/><path d="M 440 379 L 448 375 L 440 371" fill="none" stroke="rgb(0, 0, 0)" stroke-miterlimit="10" pointer-events="all"/></g></g></svg>